<svg data-v-423bf9ae="" xmlns="http://www.w3.org/2000/svg" viewBox="0 0 560.09625960501 60" class="font"><!----><!----><!----><g data-v-423bf9ae="" id="21f9e3ff-9570-4763-bb52-f77e16a8a36e" fill="white" transform="matrix(5.7747832548013,0,0,5.7747832548013,-1.3859494722595969,-19.461019384646043)"><path d="M1.26 3.84C0.85 3.84 0.64 3.82 0.59 3.82C0.42 3.82 0.34 3.92 0.34 4.07C0.34 4.37 0.45 4.42 0.59 4.42C1.06 4.47 1.32 4.48 1.32 4.87L1.32 12.53C1.32 12.77 1.18 12.78 1.02 12.81C0.42 12.88 0.24 12.87 0.24 13.13C0.24 13.45 0.36 13.47 0.50 13.47L0.53 13.47C1.16 13.47 1.64 13.44 2.13 13.44C2.77 13.44 3.40 13.52 4.05 13.52C5.05 13.52 5.57 13.27 5.73 13.20C6.55 12.84 7.50 11.90 7.50 10.56C7.50 9.31 6.64 8.33 5.56 8.12C5.53 8.11 5.52 8.09 5.52 8.08C5.52 8.06 5.53 8.05 5.54 8.04C6.29 7.57 6.87 6.76 6.87 5.88C6.87 5.12 6.43 4.56 6.02 4.27C5.29 3.77 4.27 3.71 3.70 3.71C2.86 3.71 2.11 3.84 1.26 3.84ZM5.63 6.17C5.63 6.45 5.56 6.72 5.43 6.97C4.98 7.83 4.03 7.87 3.47 7.87L3.29 7.87L2.66 7.87C2.53 7.87 2.52 7.80 2.52 7.69L2.52 4.69L2.52 4.66C2.52 4.61 2.52 4.54 2.59 4.48C2.73 4.37 3.29 4.33 3.57 4.33C5.21 4.33 5.63 5.50 5.63 6.17ZM3.60 12.87C3.37 12.87 3.15 12.84 2.94 12.81C2.53 12.74 2.52 12.53 2.52 12.29L2.52 8.68C2.52 8.57 2.53 8.47 2.72 8.47L3.43 8.47C3.82 8.47 4.23 8.47 4.61 8.55C5.82 8.82 6.26 9.80 6.26 10.63C6.26 12.10 4.98 12.87 3.60 12.87ZM8.19 10.58C8.19 12.31 9.38 13.71 11.16 13.71C12.73 13.71 14.14 12.59 14.14 10.58C14.14 8.71 12.88 7.39 11.21 7.39C9.65 7.39 8.19 8.64 8.19 10.58ZM11.20 13.02C10.05 13.02 9.28 11.97 9.28 10.51C9.28 8.64 10.39 8.05 11.12 8.05C12.18 8.05 13.19 9.14 13.19 10.64C13.19 11.89 12.39 13.02 11.20 13.02ZM14.73 10.58C14.73 12.31 15.92 13.71 17.70 13.71C19.26 13.71 20.68 12.59 20.68 10.58C20.68 8.71 19.42 7.39 17.75 7.39C16.18 7.39 14.73 8.64 14.73 10.58ZM17.74 13.02C16.59 13.02 15.82 11.97 15.82 10.51C15.82 8.64 16.93 8.05 17.65 8.05C18.72 8.05 19.73 9.14 19.73 10.64C19.73 11.89 18.93 13.02 17.74 13.02ZM24.11 13.27L24.11 13.29C24.11 13.50 24.22 13.52 24.29 13.52C24.33 13.52 24.92 13.44 25.63 13.44C26.36 13.44 26.94 13.52 26.98 13.52C27.15 13.52 27.20 13.40 27.20 13.23C27.20 13.03 27.08 13.01 26.98 12.99C26.31 12.91 25.91 12.45 25.55 12.01C23.93 10.07 23.93 10.09 23.93 10.02C23.93 9.98 23.97 9.95 24.02 9.90C24.93 8.96 25.42 8.43 26.05 8.26C26.59 8.12 26.87 8.26 26.87 7.90C26.87 7.73 26.81 7.63 26.66 7.63C26.50 7.63 26.04 7.67 25.12 7.67L24.30 7.67C24.15 7.67 24.01 7.71 24.01 7.85L24.01 7.99C24.01 8.19 24.37 8.18 24.37 8.58C24.37 8.92 24.23 8.96 22.99 10.23C22.97 10.26 22.93 10.29 22.90 10.29C22.86 10.29 22.86 10.26 22.86 10.23L22.86 3.63C22.86 3.53 22.85 3.39 22.71 3.39C22.65 3.39 22.65 3.39 21.32 3.98C21.24 4.00 21.04 4.06 21.04 4.21C21.04 4.21 21.04 4.27 21.10 4.33C21.11 4.34 21.52 4.62 21.74 4.77C21.87 4.86 21.91 4.93 21.91 5.11L21.91 12.66C21.87 13.15 21.20 12.77 21.20 13.24C21.20 13.34 21.25 13.50 21.43 13.50C21.55 13.50 21.87 13.44 22.53 13.44C23.18 13.44 23.51 13.50 23.60 13.50C23.69 13.50 23.80 13.45 23.80 13.26C23.80 13.03 23.63 12.99 23.51 12.96C22.97 12.89 22.86 12.91 22.86 12.63L22.86 11.19C22.86 11.13 22.86 11.07 22.88 11.03C22.89 10.98 23.18 10.63 23.27 10.63C23.30 10.63 23.32 10.64 23.32 10.65C23.34 10.67 24.77 12.40 24.77 12.71C24.77 13.13 24.11 12.74 24.11 13.27ZM27.76 9.11C27.76 9.80 28.18 10.50 29.32 10.82C29.76 10.95 31.00 11.09 31.00 12.01C31.00 12.57 30.49 12.95 29.86 12.95C29.05 12.95 28.41 12.42 28.27 12.12C28.07 11.73 28.29 11.26 27.94 11.26C27.73 11.26 27.69 11.33 27.69 11.69C27.69 11.89 27.71 12.15 27.71 12.53C27.71 12.74 27.73 12.85 27.87 13.01C28.28 13.48 29.16 13.71 29.81 13.71C31.19 13.71 31.93 12.71 31.93 11.82C31.93 11.59 31.88 11.13 31.51 10.71C31.00 10.11 30.34 10.07 29.62 9.87C28.59 9.58 28.52 9.06 28.52 8.86C28.52 8.41 28.92 8.12 29.40 8.12C29.86 8.12 30.37 8.41 30.55 8.67C30.74 8.95 30.70 9.35 31.00 9.35C31.11 9.35 31.32 9.31 31.32 9.13C31.32 9.07 31.14 8.15 31.05 7.66C31.04 7.59 31.00 7.39 30.83 7.39C30.66 7.39 30.60 7.53 30.48 7.53C30.41 7.53 30.20 7.46 29.78 7.46C28.52 7.46 27.76 8.27 27.76 9.11ZM36.96 7.53L36.96 7.55C36.96 7.57 36.95 7.62 36.93 7.64C36.88 7.74 35.98 8.54 35.98 10.01C35.98 12.01 37.72 13.76 40.05 13.76C42.35 13.76 44.23 12.10 44.23 10.22L44.23 10.19C44.23 9.23 43.75 8.72 43.75 8.62C43.75 8.51 43.85 8.51 43.96 8.51C45.53 8.48 46.89 7.28 46.89 5.77C46.89 4.38 45.81 3.43 44.81 3.43C44.17 3.43 43.58 3.86 43.58 4.47C43.58 4.83 43.85 5.15 44.21 5.15C44.55 5.15 44.79 4.89 44.79 4.58C44.79 4.26 44.56 4.16 44.56 4.09C44.56 3.99 44.86 3.96 44.98 3.96C45.65 3.96 46.31 4.58 46.31 5.46C46.31 6.31 45.70 6.86 45.11 7.13C44.14 7.55 42.83 7.42 41.65 8.01C40.81 8.43 40.29 9.13 40.29 9.87C40.29 10.65 40.89 11.28 41.65 11.28C42.34 11.28 42.85 10.77 42.85 10.22C42.85 9.74 42.45 9.41 42.04 9.41C41.72 9.41 41.50 9.65 41.50 9.91C41.50 10.02 41.54 10.14 41.59 10.22C41.80 10.50 42.11 10.40 42.11 10.56C42.11 10.70 41.79 10.79 41.61 10.79C41.12 10.79 40.80 10.37 40.80 9.93C40.80 9.24 41.48 8.58 42.31 8.58C43.19 8.58 43.76 9.32 43.76 10.26C43.76 11.23 43.11 12.68 40.84 12.68L40.59 12.68C37.90 12.56 37.09 10.88 37.09 9.69C37.09 9.18 37.21 8.68 37.46 8.23C37.48 8.22 37.53 8.06 37.65 8.06C37.74 8.06 38.22 8.40 38.99 8.40L39.00 8.40C39.72 8.40 40.29 8.08 40.29 7.60C40.29 7.13 39.76 6.82 39.07 6.82C38.23 6.82 37.65 7.20 37.53 7.20C37.34 7.20 36.99 6.61 36.99 6.03C36.99 5.03 37.88 4.41 38.47 4.41C39.09 4.41 39.12 5.11 39.69 5.11C40.00 5.11 40.32 4.84 40.32 4.48C40.32 3.81 39.33 3.63 38.82 3.63C37.52 3.63 36.37 4.77 36.37 6.03C36.37 6.96 36.96 7.38 36.96 7.53ZM39.21 7.95C38.75 7.95 38.40 7.94 38.07 7.69C38.05 7.67 38.02 7.64 38.02 7.60C38.02 7.48 38.50 7.28 39.20 7.28C39.70 7.28 39.80 7.49 39.80 7.63C39.80 7.90 39.49 7.95 39.21 7.95ZM52.57 13.44C53.49 13.44 53.96 13.52 54.11 13.52C54.29 13.52 54.42 13.40 54.42 13.22C54.42 12.94 54.24 12.89 54.11 12.88C53.52 12.81 53.23 12.82 53.23 12.43C53.23 12.15 53.76 10.68 54.45 9.41C54.53 9.25 54.61 9.24 54.77 9.24L58.06 9.24C58.18 9.24 58.25 9.25 58.31 9.38C58.86 10.63 59.36 12.29 59.36 12.54C59.36 12.78 59.15 12.80 59.08 12.81C58.41 12.89 58.25 12.85 58.25 13.29C58.25 13.43 58.34 13.52 58.53 13.52C58.70 13.52 59.19 13.44 60.20 13.44C61.05 13.44 61.75 13.52 61.81 13.52C61.99 13.52 62.09 13.40 62.09 13.22C62.09 13.19 62.08 13.09 62.06 13.03C61.98 12.70 61.36 13.01 61.01 12.49C60.93 12.36 60.98 12.45 59.46 8.74L57.44 4.09C57.39 3.95 57.22 3.56 56.85 3.56C56.73 3.56 56.62 3.60 56.52 3.67C56.35 3.81 56.45 3.67 54.35 7.66C53.59 9.14 52.88 10.64 52.21 12.14C52.00 12.61 51.86 12.75 51.41 12.81C50.99 12.87 50.78 12.85 50.78 13.23C50.78 13.34 50.83 13.52 51.06 13.52C51.10 13.52 51.74 13.44 52.57 13.44ZM57.78 8.51L54.91 8.51C54.85 8.51 54.82 8.48 54.82 8.46C54.82 8.37 55.38 7.29 56.25 5.67C56.31 5.57 56.39 5.43 56.52 5.43C56.59 5.43 56.63 5.46 56.67 5.53C56.88 5.87 57.90 8.27 57.90 8.41C57.90 8.50 57.85 8.51 57.78 8.51ZM67.17 12.98C67.19 12.98 67.21 12.98 67.21 13.03L67.21 13.36C67.21 13.50 67.24 13.64 67.41 13.64C67.47 13.64 67.52 13.61 67.56 13.58C68.77 12.92 68.96 13.24 68.96 12.82C68.96 12.74 68.95 12.70 68.85 12.66C68.24 12.36 68.15 12.40 68.15 12.24L68.15 7.85C68.15 7.71 68.14 7.57 67.94 7.57C67.76 7.57 67.59 7.59 66.22 7.63C66.11 7.64 66.02 7.69 66.02 7.87C66.02 8.01 66.09 8.06 66.23 8.09C66.95 8.22 67.16 8.20 67.16 8.60L67.16 12.04C67.16 12.21 67.13 12.22 66.92 12.46C66.67 12.71 66.26 12.96 65.73 12.96C64.99 12.96 64.47 12.46 64.25 12.03C63.99 11.52 63.99 11.00 63.99 10.58L63.99 7.71C63.99 7.62 63.97 7.55 63.85 7.55C63.71 7.55 63.56 7.56 62.40 7.63C62.26 7.64 62.24 7.73 62.24 7.83L62.24 7.87C62.24 8.11 62.43 8.05 62.68 8.16C63.06 8.30 63.06 8.43 63.06 8.55C63.06 8.78 63.04 10.36 63.04 10.81C63.04 11.10 63.06 11.38 63.08 11.66C63.25 12.95 64.09 13.69 65.23 13.69C66.39 13.69 67.10 12.98 67.17 12.98ZM69.78 8.33L70.22 8.33C70.31 8.33 70.32 8.39 70.32 8.46C70.32 8.76 70.27 10.93 70.27 11.55C70.27 11.70 70.27 11.84 70.28 12.00C70.38 13.31 71.13 13.71 71.69 13.71C72.46 13.71 73.15 13.01 73.64 12.45C73.67 12.40 73.74 12.32 73.74 12.21C73.74 12.08 73.64 11.96 73.49 11.96C73.18 11.96 72.63 12.80 71.96 12.80C71.37 12.80 71.25 12.25 71.25 11.76C71.25 11.42 71.25 11.10 71.26 8.48C71.26 8.39 71.30 8.36 71.40 8.36L73.04 8.36C73.16 8.36 73.23 8.34 73.29 8.29C73.36 8.20 73.42 7.97 73.42 7.88C73.42 7.62 73.18 7.62 73.05 7.62C73.01 7.62 72.98 7.60 72.94 7.60L71.68 7.60C71.51 7.60 71.40 7.56 71.40 7.32C71.40 7.13 71.41 6.54 71.41 6.34C71.41 6.16 71.32 6.12 71.23 6.12C71.08 6.12 70.99 6.30 70.95 6.37C70.20 7.66 69.50 7.91 69.50 8.15C69.50 8.32 69.65 8.33 69.78 8.33ZM77.98 13.33C77.98 13.43 78.01 13.52 78.13 13.52C78.18 13.52 78.72 13.44 79.39 13.44C80.09 13.44 80.63 13.52 80.67 13.52C80.78 13.52 80.85 13.47 80.85 13.22C80.85 13.02 80.72 12.98 80.61 12.96C80.26 12.92 80.09 12.91 80.09 12.52C80.04 9.90 79.97 9.46 79.69 8.81C79.37 8.06 78.74 7.53 77.81 7.53C76.86 7.53 76.24 8.05 76.16 8.05C76.13 8.05 76.09 8.04 76.09 7.95L76.10 3.64C76.10 3.42 75.98 3.37 75.89 3.37L75.88 3.37C75.78 3.37 75.77 3.40 74.27 4.27C74.24 4.28 74.05 4.37 74.05 4.54C74.05 4.90 74.97 4.77 75.04 5.12C75.05 5.21 75.10 7.42 75.10 8.55L75.10 8.61C75.10 9.90 75.07 11.19 75.03 12.46C75.01 12.66 75.01 12.88 74.69 12.94C74.30 13.02 74.17 13.01 74.17 13.24C74.17 13.37 74.17 13.52 74.34 13.52C74.38 13.52 74.94 13.44 75.66 13.44C76.34 13.44 76.90 13.52 76.94 13.52C77.07 13.52 77.10 13.36 77.10 13.23C77.10 12.73 76.16 13.17 76.05 12.57C76.02 12.47 76.02 9.20 76.02 9.11C76.02 9.04 76.02 8.99 76.03 8.93C76.10 8.65 76.65 8.25 77.25 8.25C77.70 8.25 78.11 8.47 78.39 8.75C78.74 9.13 79.06 9.67 79.06 11.69C79.06 12.75 79.06 12.87 78.78 12.91C78.16 12.99 77.98 12.94 77.98 13.23ZM81.37 10.58C81.37 12.31 82.56 13.71 84.34 13.71C85.90 13.71 87.32 12.59 87.32 10.58C87.32 8.71 86.06 7.39 84.39 7.39C82.82 7.39 81.37 8.64 81.37 10.58ZM84.38 13.02C83.23 13.02 82.46 11.97 82.46 10.51C82.46 8.64 83.57 8.05 84.29 8.05C85.36 8.05 86.37 9.14 86.37 10.64C86.37 11.89 85.57 13.02 84.38 13.02ZM89.64 8.16C89.61 8.16 89.60 8.13 89.60 8.09L89.60 7.53C89.60 7.41 89.59 7.25 89.43 7.25C89.39 7.25 89.35 7.28 89.31 7.29C87.85 8.01 87.84 7.98 87.84 8.05C87.85 8.11 87.88 8.13 87.89 8.15C88.55 8.62 88.66 8.61 88.66 8.89L88.66 12.60C88.66 12.81 88.61 12.89 88.41 12.94C88.03 13.03 87.78 12.95 87.78 13.29C87.78 13.43 87.86 13.52 88.00 13.52C88.05 13.52 88.65 13.44 89.43 13.44C90.19 13.44 90.80 13.52 90.85 13.52C91.03 13.52 91.04 13.36 91.04 13.24C91.04 12.92 90.86 12.98 90.02 12.91C89.68 12.88 89.67 12.64 89.67 12.49L89.67 12.43L89.67 9.07C89.67 8.97 89.67 8.90 89.73 8.82C89.81 8.69 90.37 8.25 90.82 8.25C91.28 8.25 91.29 8.60 91.64 8.60C91.88 8.60 92.06 8.41 92.22 8.32C92.33 8.22 92.58 8.06 92.60 7.83L92.60 7.81C92.60 7.42 91.95 7.20 91.50 7.20C91.35 7.20 91.22 7.21 91.10 7.25C90.72 7.39 89.70 8.16 89.64 8.16ZM93.06 9.11C93.06 9.80 93.48 10.50 94.61 10.82C95.06 10.95 96.29 11.09 96.29 12.01C96.29 12.57 95.79 12.95 95.16 12.95C94.35 12.95 93.70 12.42 93.56 12.12C93.37 11.73 93.59 11.26 93.24 11.26C93.03 11.26 92.99 11.33 92.99 11.69C92.99 11.89 93.00 12.15 93.00 12.53C93.00 12.74 93.03 12.85 93.17 13.01C93.58 13.48 94.46 13.71 95.10 13.71C96.49 13.71 97.23 12.71 97.23 11.82C97.23 11.59 97.17 11.13 96.81 10.71C96.29 10.11 95.63 10.07 94.92 9.87C93.88 9.58 93.81 9.06 93.81 8.86C93.81 8.41 94.22 8.12 94.70 8.12C95.16 8.12 95.66 8.41 95.84 8.67C96.04 8.95 96.00 9.35 96.29 9.35C96.40 9.35 96.61 9.31 96.61 9.13C96.61 9.07 96.43 8.15 96.35 7.66C96.33 7.59 96.29 7.39 96.12 7.39C95.96 7.39 95.90 7.53 95.77 7.53C95.70 7.53 95.49 7.46 95.07 7.46C93.81 7.46 93.06 8.27 93.06 9.11Z"></path></g><!----><!----></svg>